<?xml version="1.0" standalone="no"?>
<!DOCTYPE svg PUBLIC "-//W3C//DTD SVG 20010904//EN"
 "http://www.w3.org/TR/2001/REC-SVG-20010904/DTD/svg10.dtd">
<svg version="1.0" xmlns="http://www.w3.org/2000/svg"
 width="1024.000000pt" height="1024.000000pt" viewBox="0 0 1024.000000 1024.000000"
 preserveAspectRatio="xMidYMid meet">
<metadata>
Created by potrace 1.14, written by Peter Selinger 2001-2017
</metadata>
<g transform="translate(0.000000,1024.000000) scale(0.100000,-0.100000)"
fill="#000000" stroke="none">
<path d="M4660 8597 c-3 -2 -86 -7 -185 -11 -198 -7 -246 -10 -540 -32 -401
-29 -689 -64 -892 -110 -208 -46 -284 -83 -370 -178 -146 -160 -389 -560 -638
-1049 l-90 -177 -288 0 c-331 0 -382 -8 -462 -68 -60 -45 -111 -110 -125 -160
-31 -104 -21 -217 26 -299 l24 -42 -32 -17 c-90 -46 -140 -98 -240 -249 -80
-119 -112 -151 -170 -171 -169 -56 -288 -239 -344 -530 -21 -109 -14 -154 29
-199 30 -30 48 -36 267 -89 129 -31 264 -60 300 -65 36 -6 82 -12 102 -15 294
-44 997 -129 1158 -141 47 -4 92 -8 100 -10 8 -2 85 -7 170 -10 191 -7 212
-10 274 -42 69 -35 135 -107 177 -194 62 -126 83 -222 94 -439 8 -155 12 -175
41 -209 42 -51 80 -56 454 -66 124 -4 250 -8 282 -10 392 -25 2415 -25 2683 0
22 2 144 7 270 10 334 9 381 14 427 48 45 34 61 81 64 192 7 251 31 397 86
516 70 151 120 183 308 193 210 11 801 81 1365 161 301 43 827 148 860 173 67
49 75 107 36 265 -62 256 -162 398 -325 459 -67 26 -82 41 -176 179 -94 137
-127 172 -206 224 -33 21 -61 39 -62 41 -2 1 6 15 17 31 27 36 51 123 51 183
0 108 -53 216 -136 278 -86 64 -97 66 -444 70 l-315 3 -67 132 c-287 567 -557
1003 -699 1131 -28 25 -74 57 -103 71 -132 65 -480 126 -931 165 -71 6 -152
13 -180 15 -27 2 -135 9 -240 15 -104 6 -215 13 -245 16 -69 6 -1154 17 -1160
11z m970 -702 c52 -3 181 -10 285 -15 105 -6 215 -12 245 -15 30 -2 93 -7 140
-10 271 -19 719 -69 757 -85 26 -11 73 -79 185 -270 98 -167 175 -306 261
-470 33 -63 70 -133 82 -155 l23 -40 -192 32 c-293 48 -794 107 -1096 128 -47
3 -148 10 -225 15 -266 18 -522 25 -965 25 -401 0 -847 -10 -911 -19 -13 -3
-78 -7 -144 -11 -115 -6 -411 -29 -505 -40 -25 -3 -128 -14 -230 -25 -197 -22
-454 -59 -618 -88 l-101 -18 61 115 c262 496 454 821 486 821 4 0 68 9 142 19
154 22 174 25 400 46 188 17 248 22 375 30 50 3 113 7 140 10 66 6 265 16 500
25 199 7 742 5 905 -5z m883 -3134 c21 -17 21 -35 1 -55 -14 -14 -155 -16
-1399 -16 -1244 0 -1385 2 -1399 16 -20 19 -20 33 -1 54 13 14 139 16 1398 15
1158 0 1387 -2 1400 -14z"/>
<path d="M9520 5140 c-129 -27 -314 -60 -410 -74 -292 -42 -762 -103 -1005
-130 -321 -36 -308 -35 -430 -42 -184 -9 -223 -24 -273 -107 -60 -96 -114
-503 -82 -617 12 -44 64 -96 108 -107 17 -4 89 -5 160 -2 70 4 186 10 257 13
134 7 408 22 553 31 45 3 121 7 170 10 48 3 114 8 147 10 33 2 101 7 150 10
107 7 185 12 365 25 74 5 176 12 225 16 164 11 383 42 420 59 19 10 45 32 58
49 22 30 22 37 24 356 2 415 -6 473 -73 523 -45 34 -113 30 -364 -23z"/>
<path d="M365 5156 c-43 -19 -66 -49 -80 -103 -16 -62 -21 -675 -5 -731 13
-49 52 -89 99 -102 71 -18 405 -47 991 -85 47 -3 108 -8 135 -10 28 -2 106 -7
175 -10 69 -3 139 -8 155 -10 17 -2 100 -7 185 -10 85 -4 162 -9 170 -10 8 -2
89 -6 180 -10 91 -4 176 -8 190 -11 14 -2 73 -4 132 -5 86 -1 115 3 145 18 64
32 78 61 81 175 6 172 -42 395 -108 498 -70 109 -138 135 -375 144 -155 6
-438 31 -725 66 -156 19 -596 76 -650 85 -14 2 -79 11 -145 20 -66 10 -200 37
-297 61 -193 48 -208 50 -253 30z"/>
<path d="M9735 4119 c-45 -7 -319 -30 -520 -44 -44 -3 -107 -8 -140 -10 -33
-3 -132 -9 -220 -15 -88 -5 -191 -12 -230 -15 -38 -2 -119 -7 -180 -10 -60 -3
-130 -8 -155 -10 -25 -3 -108 -7 -185 -10 -77 -3 -156 -8 -175 -10 -19 -2
-107 -7 -195 -10 -88 -4 -176 -8 -195 -10 -19 -2 -120 -7 -225 -10 -104 -4
-206 -8 -225 -10 -19 -2 -132 -6 -250 -10 -118 -4 -237 -8 -265 -10 -390 -26
-2490 -26 -2905 0 -25 1 -146 6 -270 9 -124 4 -247 9 -275 11 -27 2 -122 7
-210 10 -88 3 -191 8 -230 10 -38 2 -124 7 -190 10 -147 7 -286 14 -385 20
-41 3 -115 7 -165 10 -632 38 -1213 77 -1402 96 -131 13 -171 8 -213 -27 -33
-28 -61 -104 -55 -151 2 -15 6 -73 10 -128 8 -125 13 -182 31 -319 l14 -110
-28 -55 -27 -56 -3 -487 c-3 -464 -2 -491 18 -570 36 -147 103 -263 206 -358
101 -94 196 -146 329 -180 75 -18 113 -20 571 -20 467 0 494 1 575 21 109 28
188 67 280 138 85 67 178 188 217 283 34 86 62 228 62 321 0 43 3 76 8 74 4
-3 93 -7 197 -11 105 -3 249 -8 320 -11 72 -3 191 -7 265 -10 772 -28 2877
-28 3580 0 119 5 286 11 595 21 99 3 186 7 193 9 9 3 12 -16 12 -73 0 -85 27
-227 59 -313 23 -60 95 -170 152 -230 87 -92 214 -164 348 -198 81 -20 109
-21 575 -21 458 0 496 2 571 20 272 69 467 265 535 538 20 79 21 106 18 570
l-3 487 -27 56 -28 56 15 114 c8 63 19 168 24 234 21 254 17 305 -30 353 -26
27 -43 34 -109 46 -8 2 -37 0 -65 -5z"/>
</g>
</svg>
