<svg height="477.60001pt" viewBox="0 0 477.60001 477.60001" width="477.60001pt" xmlns="http://www.w3.org/2000/svg"><path d="m477.601562 238.800781c0 131.886719-106.914062 238.800781-238.800781 238.800781s-238.800781-106.914062-238.800781-238.800781 106.914062-238.800781 238.800781-238.800781 238.800781 106.914062 238.800781 238.800781zm0 0" fill="#382b73"/><path d="m445.398438 238.800781c0 114.101563-92.496094 206.597657-206.597657 206.597657-114.101562 0-206.597656-92.496094-206.597656-206.597657 0-114.101562 92.496094-206.597656 206.597656-206.597656 114.101563 0 206.597657 92.496094 206.597657 206.597656zm0 0" fill="#473080"/><path d="m256.566406 354.1875c-.023437-.140625-.050781-.28125-.082031-.421875-.128906-.5625-.289063-1.113281-.507813-1.636719-.011718-.027344-.027343-.050781-.039062-.078125-.152344-.355469-.320312-.699219-.511719-1.03125-.011719.011719-.019531.023438-.03125.039063-1.703125-2.964844-4.867187-4.984375-8.535156-4.984375h-6.3125v-10.238281c0-9.472657-7.675781-17.152344-17.148437-17.152344h-108.621094c-9.472656 0-17.148438 7.679687-17.148438 17.152344v10.238281h-6.3125c-3.667968 0-6.832031 2.019531-8.535156 4.984375-.007812-.015625-.019531-.027344-.027344-.039063-.191406.328125-.359375.675781-.511718 1.027344-.011719.027344-.027344.054687-.039063.082031-.21875.523438-.378906 1.074219-.507813 1.636719-.03125.136719-.058593.28125-.085937.421875-.101563.578125-.175781 1.164062-.175781 1.769531v.003907c0 2.730468 1.105468 5.199218 2.894531 6.992187 1.789063 1.789063 4.261719 2.894531 6.988281 2.894531h155.546875c3.414063 0 6.421875-1.730468 8.199219-4.359375.355469-.523437.660156-1.085937.910156-1.679687.5-1.179688.777344-2.484375.777344-3.847656-.003906-.605469-.074219-1.195313-.183594-1.773438zm0 0" fill="#382b73"/><path d="m372.441406 235.511719h17.757813c3.160156 0 5.71875-2.5625 5.71875-5.71875v-26.675781c0-3.160157-2.558594-5.71875-5.71875-5.71875h-137.917969c-3.117188 0-5.640625 2.496093-5.707031 5.597656h-33.953125v-47.285156h3.214844c1.953124 0 3.722656-.730469 5.109374-1.898438 1.742188-1.460938 2.871094-3.628906 2.871094-6.082031 0-.488281-.058594-.964844-.144531-1.429688-.019531-.117187-.042969-.230469-.070313-.34375-.101562-.449219-.230468-.890625-.40625-1.308593-.015624-.035157-.039062-.070313-.054687-.109376-.121094-.273437-.246094-.542968-.394531-.796874-.007813.011718-.015625.023437-.019532.03125-1.378906-2.390626-3.929687-4.019532-6.890624-4.019532h-90.28125c-2.957032 0-5.511719 1.628906-6.890626 4.019532-.003906-.007813-.011718-.019532-.019531-.03125-.144531.253906-.273437.523437-.390625.792968-.019531.039063-.042968.074219-.058594.117188-.171874.414062-.300781.855468-.402343 1.304687-.027344.113281-.050781.234375-.074219.351563-.082031.464844-.144531.9375-.144531 1.425781 0 1.105469.226562 2.152344.628906 3.109375 1.210937 2.863281 4.046875 4.871094 7.351563 4.871094h3.214843v121.484375h-3.214843c-2.957032 0-5.511719 1.628906-6.890626 4.019531-.007812-.007812-.015624-.019531-.019531-.027344-.148437.253906-.273437.519532-.394531.789063-.015625.042969-.039062.078125-.058594.117187-.171875.417969-.300781.855469-.402344 1.304688-.027343.117187-.050781.230468-.070312.351562-.085938.460938-.144531.9375-.144531 1.425782 0 .550781.054687 1.089843.160156 1.609374.320313 1.558594 1.09375 2.949219 2.175781 4.03125 1.445313 1.445313 3.441406 2.339844 5.644532 2.339844h90.277343c4.40625 0 7.980469-3.570312 7.980469-7.980468 0-.488282-.058594-.964844-.144531-1.433594-.023438-.113282-.042969-.226563-.070313-.34375-.101562-.449219-.230468-.890625-.40625-1.308594-.015625-.039062-.039062-.070312-.054687-.109375-.117188-.273437-.246094-.539063-.394531-.796875-.007813.011719-.015626.019531-.019532.03125-1.378906-2.394531-3.929687-4.019531-6.890625-4.019531h-3.214843v-47.285157h33.953124c.066407 3.101563 2.589844 5.597657 5.707032 5.597657h17.757812c-14.59375 13.671875-23.730468 33.105469-23.730468 54.683593 0 41.378907 33.550781 74.929688 74.929687 74.929688 41.382813 0 74.929687-33.550781 74.929687-74.929688.007813-21.578124-9.125-41.011718-23.722656-54.683593zm0 0" fill="#382b73"/><path d="m240.550781 332.074219h-142.921875v-10.238281c0-9.472657 7.675782-17.152344 17.148438-17.152344h108.621094c9.472656 0 17.148437 7.679687 17.148437 17.152344v10.238281zm0 0" fill="#fede3a"/><path d="m246.863281 351.847656h-155.550781c-5.457031 0-9.882812-4.425781-9.882812-9.886718 0-5.457032 4.425781-9.886719 9.882812-9.886719h155.546875c5.460937 0 9.886719 4.429687 9.886719 9.886719 0 5.460937-4.425782 9.886718-9.882813 9.886718zm0 0" fill="#1caee4"/><path d="m246.863281 341.960938h-155.550781c-3.65625 0-6.851562-1.988282-8.558594-4.941407-.84375 1.453125-1.324218 3.140625-1.324218 4.941407 0 5.460937 4.425781 9.886718 9.886718 9.886718h155.546875c5.457031 0 9.882813-4.425781 9.882813-9.886718 0-1.800782-.480469-3.488282-1.320313-4.941407-1.710937 2.953125-4.90625 4.941407-8.5625 4.941407zm0 0" fill="#136da0"/><path d="m97.628906 321.835938h142.921875v10.238281h-142.921875zm0 0" fill="#e7ad27"/><path d="m128.773438 141.710938h83.847656v121.484374h-83.847656zm0 0" fill="#009add"/><path d="m149.257812 141.710938h42.875v121.484374h-42.875zm0 0" fill="#1caee4"/><path d="m128.773438 163.984375h83.847656v76.941406h-83.847656zm0 0" fill="#e7ad27"/><path d="m149.257812 163.984375h42.875v76.941406h-42.875zm0 0" fill="#fede3a"/><path d="m215.835938 141.710938h-90.28125c-4.40625 0-7.980469-3.570313-7.980469-7.980469 0-4.40625 3.574219-7.976563 7.980469-7.976563h90.28125c4.40625 0 7.980468 3.570313 7.980468 7.976563 0 4.410156-3.574218 7.980469-7.980468 7.980469zm0 0" fill="#1caee4"/><path d="m191.300781 141.710938h-41.207031c-4.410156 0-7.980469-3.570313-7.980469-7.980469 0-4.40625 3.570313-7.976563 7.980469-7.976563h41.207031c4.410157 0 7.980469 3.570313 7.980469 7.976563 0 4.410156-3.574219 7.980469-7.980469 7.980469zm0 0" fill="#27c1e6"/><path d="m215.835938 279.15625h-90.28125c-4.40625 0-7.980469-3.570312-7.980469-7.980469 0-4.40625 3.574219-7.980469 7.980469-7.980469h90.28125c4.40625 0 7.980468 3.574219 7.980468 7.980469s-3.574218 7.980469-7.980468 7.980469zm0 0" fill="#009add"/><path d="m191.300781 279.15625h-41.207031c-4.410156 0-7.980469-3.570312-7.980469-7.980469 0-4.40625 3.570313-7.980469 7.980469-7.980469h41.207031c4.410157 0 7.980469 3.574219 7.980469 7.980469s-3.574219 7.980469-7.980469 7.980469zm0 0" fill="#1caee4"/><path d="m212.621094 188.996094h150.066406v26.914062h-150.066406zm0 0" fill="#fede3a"/><path d="m238.347656 188.996094h8.34375v26.914062h-8.34375zm0 0" fill="#f7cb15"/><path d="m212.621094 188.996094h8.34375v26.914062h-8.34375zm0 0" fill="#f7cb15"/><path d="m212.621094 206.742188h150.066406v9.171874h-150.066406zm0 0" fill="#e7ad27"/><path d="m390.199219 221.511719h-137.917969c-3.160156 0-5.71875-2.5625-5.71875-5.71875v-26.675781c0-3.160157 2.558594-5.71875 5.71875-5.71875h137.917969c3.160156 0 5.71875 2.5625 5.71875 5.71875v26.675781c0 3.15625-2.558594 5.71875-5.71875 5.71875zm0 0" fill="#1caee4"/><path d="m390.199219 183.398438h-137.917969c-3.160156 0-5.71875 2.558593-5.71875 5.714843v5.597657c0-3.15625 2.558594-5.714844 5.71875-5.714844h137.917969c3.160156 0 5.71875 2.558594 5.71875 5.714844v-5.597657c0-3.15625-2.558594-5.714843-5.71875-5.714843zm0 0" fill="#27c1e6"/><g fill="#136da0"><path d="m390.199219 206.980469h-137.917969c-3.160156 0-5.71875-2.558594-5.71875-5.714844v14.527344c0 3.160156 2.558594 5.71875 5.71875 5.71875h137.917969c3.160156 0 5.71875-2.5625 5.71875-5.71875v-14.527344c0 3.15625-2.558594 5.714844-5.71875 5.714844zm0 0"/><path d="m128.773438 141.710938h83.847656v11.476562h-83.847656zm0 0"/><path d="m128.773438 251.722656h83.847656v11.472656h-83.847656zm0 0"/><path d="m215.835938 271.175781h-90.28125c-2.953126 0-5.527344-1.605469-6.910157-3.988281-.679687 1.171875-1.070312 2.535156-1.070312 3.988281 0 4.40625 3.574219 7.980469 7.980469 7.980469h90.28125c4.402343 0 7.976562-3.570312 7.976562-7.980469 0-1.453125-.386719-2.816406-1.070312-3.988281-1.375 2.382812-3.953126 3.988281-6.90625 3.988281zm0 0"/></g><path d="m215.835938 133.730469h-90.28125c-2.953126 0-5.527344-1.605469-6.910157-3.988281-.679687 1.171874-1.070312 2.535156-1.070312 3.988281 0 4.40625 3.574219 7.980469 7.980469 7.980469h90.28125c4.402343 0 7.976562-3.570313 7.976562-7.980469 0-1.453125-.386719-2.816407-1.070312-3.988281-1.375 2.382812-3.953126 3.988281-6.90625 3.988281zm0 0" fill="#009add"/><path d="m396.171875 276.195312c0 41.382813-33.550781 74.929688-74.933594 74.929688-41.382812 0-74.929687-33.546875-74.929687-74.929688 0-41.382812 33.546875-74.929687 74.929687-74.929687 41.382813 0 74.933594 33.546875 74.933594 74.929687zm0 0" fill="#e43d91"/><path d="m334.875 218.492188c-31.882812-7.527344-63.835938 12.214843-71.363281 44.101562-7.53125 31.882812 12.214843 63.835938 44.097656 71.363281 31.886719 7.527344 63.835937-12.214843 71.367187-44.101562 7.527344-31.882813-12.21875-63.835938-44.101562-71.363281zm0 0" fill="#ef5a9d"/><path d="m366.21875 270.683594c.027344-.09375.03125-.191406.054688-.285156.074218-.328126.121093-.65625.132812-.992188.003906-.164062 0-.320312-.007812-.484375-.011719-.285156-.054688-.5625-.113282-.839844-.03125-.152343-.050781-.304687-.097656-.457031-.113281-.371094-.257812-.738281-.457031-1.078125 0 .003906-.003907.007813-.007813.011719-.519531-.914063-1.3125-1.699219-2.414062-2.195313l-39.910156-17.839843c-1.371094-.613282-2.941407-.613282-4.3125 0l-39.90625 17.839843c-1.109376.496094-1.898438 1.28125-2.417969 2.195313-.003907-.003906-.007813-.007813-.007813-.011719-.199218.339844-.34375.707031-.457031 1.078125-.046875.148438-.066406.304688-.097656.457031-.0625.277344-.101563.558594-.113281.839844-.011719.164063-.015626.320313-.011719.484375.015625.335938.0625.664062.136719.992188.019531.09375.023437.191406.050781.285156.117187.410156.296875.800781.511719 1.175781.066406.109375.140624.207031.214843.316406.191407.277344.40625.535157.65625.777344.097657.09375.191407.1875.296875.277344.363282.300781.761719.578125 1.230469.789062h.003906l1.789063.800781c-.074219.164063-.125.339844-.125.535157v15c-1.636719.550781-2.820313 2.082031-2.820313 3.90625v5.105469c0 1.460937 1.183594 2.644531 2.640625 2.644531h2.996094c1.460938 0 2.644531-1.183594 2.644531-2.644531v-5.105469c0-1.824219-1.183593-3.355469-2.820312-3.90625v-13.976563l.621093-.15625 6.746094 3.011719v21.296875c0 2.101562 1.246094 4.007812 3.175782 4.847656l25.109374 10.917969c1.34375.582031 2.875.582031 4.21875 0l25.109376-10.917969c1.929687-.839844 3.175781-2.746094 3.175781-4.847656v-21.296875l11.671875-5.214844c.472656-.210937.871094-.484375 1.234375-.789062.105469-.089844.199219-.183594.296875-.277344.25-.242187.464844-.5.65625-.777344.070312-.109375.148437-.207031.214844-.316406.214843-.375.390624-.765625.507812-1.175781zm0 0" fill="#e43d91"/><path d="m348.457031 298.144531-25.109375 10.917969c-1.34375.582031-2.871094.582031-4.214844 0l-25.109374-10.917969c-1.929688-.839843-3.179688-2.742187-3.179688-4.847656v-22.191406h60.789062v22.191406c.003907 2.101563-1.246093 4.007813-3.175781 4.847656zm0 0" fill="#f7cb15"/><path d="m290.847656 279.933594 28.238282 12.621094c1.371093.613281 2.941406.613281 4.3125 0l28.238281-12.621094v-8.832032h-60.789063zm0 0" fill="#e7ad27"/><path d="m319.085938 284.625-39.910157-17.839844c-4.171875-1.863281-4.171875-7.785156 0-9.652344l39.910157-17.839843c1.371093-.613281 2.941406-.613281 4.3125 0l39.90625 17.839843c4.171874 1.863282 4.171874 7.789063 0 9.652344l-39.90625 17.839844c-1.371094.613281-2.941407.613281-4.3125 0zm0 0" fill="#fede3a"/><path d="m363.304688 261.5-39.90625 17.839844c-1.371094.613281-2.941407.613281-4.3125 0l-39.910157-17.839844c-1.101562-.492188-1.90625-1.273438-2.421875-2.183594-1.449218 2.535156-.644531 6.097656 2.421875 7.46875l39.910157 17.839844c1.371093.613281 2.941406.613281 4.3125 0l39.90625-17.839844c3.070312-1.371094 3.875-4.933594 2.425781-7.46875-.519531.910156-1.324219 1.691406-2.425781 2.183594zm0 0" fill="#f7cb15"/><path d="m326.363281 258.511719c0 1.542969-2.292969 2.792969-5.121093 2.792969-2.828126 0-5.121094-1.25-5.121094-2.792969s2.292968-2.792969 5.121094-2.792969c2.828124 0 5.121093 1.25 5.121093 2.792969zm0 0" fill="#f7cb15"/><path d="m321.238281 259.691406c-2.308593 0-4.238281-.839844-4.875-1.988281-.144531.257813-.242187.523437-.242187.808594 0 1.539062 2.289062 2.792969 5.117187 2.792969s5.121094-1.25 5.121094-2.792969c0-.285157-.097656-.550781-.242187-.808594-.636719 1.148437-2.566407 1.988281-4.878907 1.988281zm0 0" fill="#e7ad27"/><path d="m282.160156 292.6875c-.730468 0-1.320312-.589844-1.320312-1.320312v-23.246094c0-.605469.40625-1.132813.992187-1.28125l39.078125-10.015625c.707032-.183594 1.429688.246093 1.609375.953125.183594.707031-.242187 1.429687-.953125 1.609375l-38.085937 9.761719v22.21875c0 .730468-.589844 1.320312-1.320313 1.320312zm0 0" fill="#e7ad27"/><path d="m283.660156 294.78125h-3c-1.457031 0-2.640625-1.183594-2.640625-2.644531v-5.109375c0-2.289063 1.851563-4.140625 4.140625-4.140625 2.289063 0 4.140625 1.851562 4.140625 4.140625v5.109375c0 1.460937-1.179687 2.644531-2.640625 2.644531zm0 0" fill="#f7cb15"/><path d="m282.894531 294.78125h-1.472656c-.71875 0-1.300781-.582031-1.300781-1.300781v-8.558594c0-1.125.914062-2.035156 2.035156-2.035156 1.125 0 2.039062.910156 2.039062 2.035156v8.558594c0 .71875-.582031 1.300781-1.300781 1.300781zm0 0" fill="#fede3a"/></svg>